<svg width="471" height="296" viewBox="0 0 471 296" fill="none" xmlns="http://www.w3.org/2000/svg">
<g clip-path="url(#clip0_229_197)">
<g clip-path="url(#clip1_229_197)">
<path d="M460.628 0H269.33C263.378 0.668494 260.105 4.30808 259.527 10.9506V120.894C260.097 127.529 263.365 131.155 269.277 131.847H460.673C466.588 131.155 469.853 127.526 470.426 120.894V10.9506C469.85 4.30808 466.574 0.668494 460.628 0Z" fill="#F7971D"/>
<path d="M451.052 51.2008C447.806 47.6143 443.445 45.3117 438.695 44.2533C437.334 43.8925 435.779 43.6352 434.05 43.5583C427.769 42.9879 419.7 45.5001 415.95 48.6489L416.859 22.9066H401.584V102.606H415.775V98.2156C419.045 100.85 424.297 103.908 432.297 103.908C432.61 103.908 432.907 103.906 433.196 103.9C433.403 103.906 433.612 103.908 433.819 103.908C440.525 103.908 446.225 101.245 450.914 95.9183C455.607 90.5863 457.954 82.9994 457.954 73.1418C457.954 63.6078 455.652 56.2968 451.052 51.2008ZM438.74 87.5197C436.368 90.4006 433.496 91.8384 430.124 91.8384C425.737 91.8384 422.223 89.809 419.578 85.7503C417.695 82.888 416.751 78.4685 416.751 72.4866C416.751 66.6876 417.966 62.3663 420.393 59.5225C422.822 56.6788 425.865 55.2543 429.525 55.2543C433.26 55.2543 436.321 56.7133 438.713 59.6286C441.103 62.5467 442.302 67.3057 442.302 73.8978C442.302 80.1 441.114 84.6362 438.74 87.5197ZM376.967 69.2237C376.967 77.487 376.587 82.6784 375.826 84.8006C375.065 86.9202 373.651 88.6975 371.585 90.1247C369.521 91.5599 367.182 92.2735 364.574 92.2735C362.291 92.2735 360.405 91.7403 358.919 90.6712C357.434 89.6021 356.407 88.1511 355.848 86.3207C355.285 84.4903 355.007 79.519 355.007 71.3963V44.8687H339.734V81.4025C339.734 86.838 340.421 91.0956 341.798 94.1781C343.174 97.258 345.402 99.6508 348.482 101.354C351.564 103.057 355.041 103.908 358.919 103.908C359.5 103.908 360.076 103.887 360.646 103.847C360.673 103.847 360.675 103.847 360.691 103.842C370.412 103.561 375.476 99.1521 378.054 96.2446V102.603H392.239V44.8687H376.967V69.2237ZM327.127 50.5244C325.695 48.4977 323.567 46.8291 320.743 45.524C318.186 44.3435 315.35 43.7042 312.231 43.5901C312.178 43.5874 312.13 43.5821 312.077 43.5795C305.64 43.2373 297.406 45.1154 293.563 48.8134V22.9066H278.29V102.603H293.563V73.6856C293.563 68.8284 294.027 65.157 294.95 62.6767C295.876 60.191 297.332 58.3341 299.327 57.1006C301.319 55.8723 303.581 55.2543 306.122 55.2543C308.329 55.2543 310.173 55.7344 311.637 56.6947C313.104 57.655 314.13 58.9522 314.708 60.581C315.286 62.2151 315.578 66.0536 315.578 72.1046V102.603H330.851V68.7356C330.851 63.5547 330.586 59.7295 330.061 57.2677C329.538 54.798 328.557 52.5537 327.127 50.5244Z" fill="white"/>
<path d="M241.005 54.0207C240.413 51.5059 239.365 49.2537 237.864 47.2721C236.355 45.2905 234.135 43.659 231.198 42.3831C228.262 41.1071 225.024 40.4704 221.477 40.4704C215.05 40.1043 204.618 42.5581 201.467 47.5506V41.8392H186.544V102.566H202.61V75.065C202.61 68.2792 203.021 63.6263 203.841 61.1115C204.658 58.594 206.175 56.5753 208.387 55.05C210.597 53.5246 213.093 52.7606 215.875 52.7606C218.048 52.7606 219.907 53.2991 221.451 54.3629C222.994 55.4293 224.111 56.9281 224.795 58.8514C225.482 60.7799 225.825 65.019 225.825 71.574V102.566H241.89V64.828C241.89 60.1379 241.596 56.5355 241.005 54.0207ZM164.452 40.7012C159.699 41.3087 155.155 45.1446 153.166 47.5878V41.8419H138.243V102.569H154.309V83.8138C154.309 73.4813 154.757 66.6982 155.654 63.4565C156.548 60.2149 157.779 57.9786 159.341 56.7371C160.903 55.4983 162.81 54.8775 165.059 54.8775C167.383 54.8775 169.898 55.7529 172.606 57.5064L177.582 43.4972C174.189 41.4785 170.661 40.4704 167.004 40.4704C166.12 40.4704 165.272 40.55 164.452 40.7012ZM98.9259 40.4678C92.9791 40.4678 87.5946 41.7809 82.7751 44.4151C77.9503 47.0413 74.2263 50.8533 71.595 55.8484C68.9664 60.8436 67.6508 66.0085 67.6508 71.3458C67.6508 78.3226 68.9664 84.2409 71.595 89.0981C74.2263 93.9632 78.0643 97.6506 83.1173 100.163C88.1675 102.678 93.4751 103.94 99.04 103.94C108.034 103.94 115.496 100.919 121.424 94.8758C127.352 88.8328 130.315 81.2194 130.315 72.0276C130.315 62.9207 127.381 55.3816 121.512 49.4155C115.639 43.4521 108.111 40.4678 98.9259 40.4678ZM109.533 86.0421C106.692 89.244 103.175 90.8462 98.9816 90.8462C94.7881 90.8462 91.263 89.244 88.4063 86.0421C85.5469 82.8376 84.1173 78.2244 84.1173 72.2027C84.1173 66.1809 85.5469 61.5651 88.4063 58.3633C91.263 55.164 94.7881 53.5618 98.9816 53.5618C103.175 53.5618 106.692 55.164 109.533 58.3633C112.371 61.5651 113.793 66.1438 113.793 72.0886C113.793 78.1899 112.371 82.8376 109.533 86.0421ZM47.2826 19.9964C44.158 19.1555 37.45 18.7364 27.1585 18.7364H0V102.566H16.9226V70.9453H27.9569C35.6198 70.9453 41.4711 70.5447 45.5108 69.7436C48.4868 69.0963 51.4099 67.7699 54.2878 65.7697C57.1657 63.7696 59.537 61.016 61.4069 57.5064C63.2743 54.0021 64.2079 49.6728 64.2079 44.5265C64.2079 37.8548 62.5873 32.414 59.3486 28.1988C56.1073 23.9888 52.0862 21.2512 47.2826 19.9964ZM44.853 51.2751C43.5772 53.1453 41.8159 54.5168 39.5666 55.3922C37.3174 56.2676 32.8533 56.7053 26.185 56.7053H16.9226V32.918H25.1002C31.1982 32.918 35.2591 33.109 37.2776 33.491C40.0229 33.9871 42.2907 35.2259 44.0838 37.2075C45.8715 39.1891 46.7707 41.7039 46.7707 44.7546C46.7707 47.2323 46.1288 49.4076 44.853 51.2751Z" fill="white"/>
<path d="M460.628 163.914H269.33C263.378 164.582 260.105 168.222 259.527 174.865V284.808C260.097 291.443 263.365 295.069 269.277 295.761H460.673C466.588 295.069 469.853 291.44 470.426 284.808V174.865C469.85 168.222 466.574 164.582 460.628 163.914Z" fill="#F7971D"/>
<path d="M451.052 215.115C447.806 211.528 443.445 209.226 438.695 208.167C437.334 207.807 435.779 207.549 434.05 207.472C427.769 206.902 419.7 209.414 415.95 212.563L416.859 186.821H401.584V266.52H415.775V262.13C419.045 264.764 424.297 267.822 432.297 267.822C432.61 267.822 432.907 267.82 433.196 267.814C433.403 267.82 433.612 267.822 433.819 267.822C440.525 267.822 446.225 265.159 450.914 259.832C455.607 254.5 457.954 246.913 457.954 237.056C457.954 227.522 455.652 220.211 451.052 215.115ZM438.74 251.434C436.368 254.315 433.496 255.752 430.124 255.752C425.737 255.752 422.223 253.723 419.578 249.664C417.695 246.802 416.751 242.383 416.751 236.401C416.751 230.602 417.966 226.28 420.393 223.437C422.822 220.593 425.865 219.168 429.525 219.168C433.26 219.168 436.321 220.627 438.713 223.543C441.103 226.461 442.302 231.22 442.302 237.812C442.302 244.014 441.114 248.55 438.74 251.434ZM376.967 233.138C376.967 241.401 376.587 246.592 375.826 248.715C375.065 250.834 373.651 252.612 371.585 254.039C369.521 255.474 367.182 256.187 364.574 256.187C362.291 256.187 360.405 255.654 358.919 254.585C357.434 253.516 356.407 252.065 355.848 250.235C355.285 248.404 355.007 243.433 355.007 235.31V208.783H339.734V245.316C339.734 250.752 340.421 255.01 341.798 258.092C343.174 261.172 345.402 263.565 348.482 265.268C351.564 266.971 355.041 267.822 358.919 267.822C359.5 267.822 360.076 267.801 360.646 267.761C360.673 267.761 360.675 267.761 360.691 267.756C370.412 267.475 375.476 263.066 378.054 260.159V266.517H392.239V208.783H376.967V233.138ZM327.127 214.438C325.695 212.412 323.567 210.743 320.743 209.438C318.186 208.257 315.35 207.618 312.231 207.504C312.178 207.501 312.13 207.496 312.077 207.493C305.64 207.151 297.406 209.029 293.563 212.727V186.821H278.29V266.517H293.563V237.6C293.563 232.742 294.027 229.071 294.95 226.591C295.876 224.105 297.332 222.248 299.327 221.015C301.319 219.786 303.581 219.168 306.122 219.168C308.329 219.168 310.173 219.648 311.637 220.609C313.104 221.569 314.13 222.866 314.708 224.495C315.286 226.129 315.578 229.968 315.578 236.019V266.517H330.851V232.65C330.851 227.469 330.586 223.643 330.061 221.182C329.538 218.712 328.557 216.468 327.127 214.438Z" fill="black"/>
<path d="M241.005 217.935C240.413 215.42 239.365 213.168 237.864 211.186C236.355 209.204 234.135 207.573 231.198 206.297C228.262 205.021 225.024 204.384 221.477 204.384C215.05 204.018 204.618 206.472 201.467 211.465V205.753H186.544V266.48H202.61V238.979C202.61 232.193 203.021 227.54 203.841 225.025C204.658 222.508 206.175 220.489 208.387 218.964C210.597 217.439 213.093 216.675 215.875 216.675C218.048 216.675 219.907 217.213 221.451 218.277C222.994 219.343 224.111 220.842 224.795 222.765C225.482 224.694 225.825 228.933 225.825 235.488V266.48H241.89V228.742C241.89 224.052 241.596 220.449 241.005 217.935ZM164.452 204.615C159.699 205.223 155.155 209.059 153.166 211.502V205.756H138.243V266.483H154.309V247.728C154.309 237.395 154.757 230.612 155.654 227.37C156.548 224.129 157.779 221.893 159.341 220.651C160.903 219.412 162.81 218.791 165.059 218.791C167.383 218.791 169.898 219.667 172.606 221.42L177.582 207.411C174.189 205.392 170.661 204.384 167.004 204.384C166.12 204.384 165.272 204.464 164.452 204.615ZM98.9259 204.382C92.9791 204.382 87.5946 205.695 82.7751 208.329C77.9503 210.955 74.2263 214.767 71.595 219.762C68.9664 224.758 67.6508 229.922 67.6508 235.26C67.6508 242.237 68.9664 248.155 71.595 253.012C74.2263 257.877 78.0643 261.564 83.1173 264.077C88.1675 266.591 93.4751 267.854 99.04 267.854C108.034 267.854 115.496 264.833 121.424 258.79C127.352 252.747 130.315 245.133 130.315 235.942C130.315 226.835 127.381 219.295 121.512 213.329C115.639 207.366 108.111 204.382 98.9259 204.382ZM109.533 249.956C106.692 253.158 103.175 254.76 98.9816 254.76C94.7881 254.76 91.263 253.158 88.4063 249.956C85.5469 246.752 84.1173 242.138 84.1173 236.117C84.1173 230.095 85.5469 225.479 88.4063 222.277C91.263 219.078 94.7881 217.476 98.9816 217.476C103.175 217.476 106.692 219.078 109.533 222.277C112.371 225.479 113.793 230.058 113.793 236.003C113.793 242.104 112.371 246.752 109.533 249.956ZM47.2826 183.91C44.158 183.069 37.45 182.65 27.1585 182.65H0V266.48H16.9226V234.859H27.9569C35.6198 234.859 41.4711 234.459 45.5108 233.658C48.4868 233.01 51.4099 231.684 54.2878 229.684C57.1657 227.684 59.537 224.93 61.4069 221.42C63.2743 217.916 64.2079 213.587 64.2079 208.44C64.2079 201.769 62.5873 196.328 59.3486 192.113C56.1073 187.903 52.0862 185.165 47.2826 183.91ZM44.853 215.189C43.5772 217.059 41.8159 218.431 39.5666 219.306C37.3174 220.182 32.8533 220.619 26.185 220.619H16.9226V196.832H25.1002C31.1982 196.832 35.2591 197.023 37.2776 197.405C40.0229 197.901 42.2907 199.14 44.0838 201.121C45.8715 203.103 46.7707 205.618 46.7707 208.669C46.7707 211.146 46.1288 213.321 44.853 215.189Z" fill="black"/>
</g>
</g>
<defs>
<clipPath id="clip0_229_197">
<rect width="471" height="296" fill="white"/>
</clipPath>
<clipPath id="clip1_229_197">
<rect width="471" height="296" fill="white"/>
</clipPath>
</defs>
</svg>
